<svg xmlns="http://www.w3.org/2000/svg" viewBox="0 0 84.1 54.9"><path d="M78.6 50.8v-1.4h-4.9v1.4h1.6v4H77v-4h1.6zm-13.1 4h2.2l-2.1-3.3 2-2.2h-2.1l-1.6 1.9v-1.9H62v5.5h1.8v-1.3l.5-.6 1.2 1.9zm-10.1-4.1v-1.4h-4.6v5.5h4.7v-1.4h-2.9v-.7h2.6v-1.4h-2.6v-.7h2.8zm-11.3-1.4h-3.7v1.4h1.9v2.2c0 .3-.2.5-.4.5-.3 0-.7-.2-1.1-.6L40 54c.6.6 1.3 1 2.1 1 1.3 0 2.1-.7 2.1-1.9v-3.8zm-13 1.5c.6 0 1.1.5 1.1 1.3s-.5 1.3-1.1 1.3c-.6 0-1.2-.6-1.2-1.3 0-.8.6-1.3 1.2-1.3zm0-1.5c-1.7 0-3 1.2-3 2.8 0 1.6 1.3 2.8 3 2.8s3-1.2 3-2.8c0-1.6-1.3-2.8-3-2.8zm-11.2 5.5h2l-1-1.8c.6-.3.9-.9.9-1.7 0-1.3-.9-2-2.3-2h-2.6v5.5h1.8v-4.1h.8c.4 0 .6.2.6.6 0 .4-.2.7-.6.7h-.2v1.4l.6 1.4zM5.5 49.3v5.5h1.8v-4.1H8c.4 0 .6.2.6.6 0 .5-.2.7-.6.7v1.4h.1c1.4 0 2.2-.8 2.2-2.1s-.8-2-2.2-2H5.5zm7.3-9.1H5.5l7.3-34.7h7.3l3.7 17.4 3.7-17.4h7.3l3.7 17.4L42 5.5h7.3L53 22.8l3.7-17.4h11c6.1 0 11 4.9 11 11s-4.9 11-11 11H63l1.5-7.3h3c1 0 1.9-.4 2.6-1.1.7-.7 1.1-1.6 1.1-2.6s-.4-1.9-1.1-2.6c-.7-.7-1.6-1.1-2.6-1.1h-5.2l-5.8 27.4h-7.3l-3.7-17.4L42 40.2h-7.3L31 22.8l-3.7 17.4H20l-3.7-17.4-3.5 17.4zm69.4 3.7v-42H1.8v42h80.4zM84.1 0v45.7H0V0h84.1z" fill-rule="evenodd" clip-rule="evenodd" fill="#19274c"/></svg>