<svg xmlns="http://www.w3.org/2000/svg" xmlns:xlink="http://www.w3.org/1999/xlink" viewBox="0 0 1600 959.8"><defs><path id="a" d="M0 0h1600v959.8H0z"/></defs><clipPath id="b"><use xlink:href="#a" overflow="visible"/></clipPath><path clip-path="url(#b)" fill-rule="evenodd" clip-rule="evenodd" fill="#19274c" d="M-189.7-236.5h2000.6v1343.6H-189.7z"/><path d="M107.9 702.3l-155-52.2 352.3-872.6 155 52.2-21.1 488.5 176.2-436.3 155 52.2-21.1 488.5L925.3-13.8l155 52.2-21.2 488.5 176.2-436.3 155 52.2 77.5 26.1c128.4 43.2 204.6 209 170.2 370.3-34.4 161.3-166.4 257-294.8 213.8l-96.9-32.6 74.2-183.7 64.3 21.6c21.4 7.2 43.1 2.8 60.9-10 17.8-12.9 31.6-34.3 37.4-61.2 5.8-26.9 2.3-54.2-8-76.5-10.3-22.3-27.3-39.7-48.7-46.9l-110.1-37.1-278.3 688.7-155-52.2 21.1-488.5L728 911l-155-52.2 21.1-488.5L418 806.6l-155-52.2L284.1 266 107.9 702.3z" opacity=".03" clip-path="url(#b)" fill-rule="evenodd" clip-rule="evenodd" fill="#fff"/></svg>