<?xml version="1.0" encoding="utf-8"?>
<!-- Generator: Adobe Illustrator 22.1.0, SVG Export Plug-In . SVG Version: 6.00 Build 0)  -->
<svg version="1.1" id="Warstwa_1" xmlns="http://www.w3.org/2000/svg" xmlns:xlink="http://www.w3.org/1999/xlink" x="0px" y="0px"
	 viewBox="0 0 73.1 34.7" style="enable-background:new 0 0 73.1 34.7;" xml:space="preserve">
<style type="text/css">
	.st0{fill-rule:evenodd;clip-rule:evenodd;fill:#19274C;}
</style>
<g>
	<path class="st0" d="M7.3,34.7H0L7.3,0h7.3l3.7,17.4L21.9,0h7.3l3.7,17.4L36.5,0h7.3l3.7,17.4L51.2,0h7.3h3.7c6.1,0,11,4.9,11,11
		c0,6.1-4.9,11-11,11h-4.6l1.5-7.3h3l0,0c1,0,1.9-0.4,2.6-1.1c0.7-0.7,1.1-1.6,1.1-2.6c0-1-0.4-1.9-1.1-2.6
		c-0.7-0.7-1.6-1.1-2.6-1.1l0,0h-5.2l-5.8,27.4h-7.3l-3.7-17.4l-3.7,17.4h-7.3l-3.7-17.4l-3.7,17.4h-7.3L11,17.4L7.3,34.7z"/>
</g>
</svg>
