<?xml version="1.0" encoding="utf-8"?>
<!-- Generator: Adobe Illustrator 22.1.0, SVG Export Plug-In . SVG Version: 6.00 Build 0)  -->
<svg version="1.1" id="Warstwa_1" xmlns="http://www.w3.org/2000/svg" xmlns:xlink="http://www.w3.org/1999/xlink" x="0px" y="0px"
	 viewBox="0 0 84.1 54.9" style="enable-background:new 0 0 84.1 54.9;" xml:space="preserve">
<style type="text/css">
	.st0{fill-rule:evenodd;clip-rule:evenodd;fill:#19274C;}
</style>
<path class="st0" d="M78.6,50.8v-1.4h-4.9v1.4h1.6v4H77v-4H78.6z M65.5,54.8h2.2l-2.1-3.3l2-2.2h-2.1l-1.6,1.9v-1.9H62v5.5h1.8v-1.3
	l0.5-0.6L65.5,54.8z M55.4,50.7v-1.4h-4.6v5.5h4.7v-1.4h-2.9v-0.7h2.6v-1.4h-2.6v-0.7H55.4z M44.1,49.3h-3.7v1.4h1.9v2.2
	c0,0.3-0.2,0.5-0.4,0.5c-0.3,0-0.7-0.2-1.1-0.6l-0.8,1.2c0.6,0.6,1.3,1,2.1,1c1.3,0,2.1-0.7,2.1-1.9V49.3z M31.1,50.8
	c0.6,0,1.1,0.5,1.1,1.3c0,0.8-0.5,1.3-1.1,1.3c-0.6,0-1.2-0.6-1.2-1.3C29.9,51.3,30.5,50.8,31.1,50.8z M31.1,49.3
	c-1.7,0-3,1.2-3,2.8c0,1.6,1.3,2.8,3,2.8c1.7,0,3-1.2,3-2.8C34.1,50.5,32.8,49.3,31.1,49.3z M19.9,54.8h2L20.9,53
	c0.6-0.3,0.9-0.9,0.9-1.7c0-1.3-0.9-2-2.3-2h-2.6v5.5h1.8v-1.1v-0.4V52v-0.4v-0.9h0.8c0.4,0,0.6,0.2,0.6,0.6c0,0.4-0.2,0.7-0.6,0.7
	h-0.2v1.4L19.9,54.8z M5.5,49.3v5.5h1.8v-1.4h0V52h0v-1.3H8c0.4,0,0.6,0.2,0.6,0.6C8.6,51.8,8.4,52,8,52v1.4h0.1
	c1.4,0,2.2-0.8,2.2-2.1c0-1.3-0.8-2-2.2-2H5.5z M12.8,40.2H5.5l7.3-34.7h7.3l3.7,17.4l3.7-17.4h7.3l3.7,17.4L42,5.5h7.3L53,22.8
	l3.7-17.4H64h3.7c6.1,0,11,4.9,11,11c0,6.1-4.9,11-11,11H63l1.5-7.3h3l0,0c1,0,1.9-0.4,2.6-1.1c0.7-0.7,1.1-1.6,1.1-2.6
	c0-1-0.4-1.9-1.1-2.6c-0.7-0.7-1.6-1.1-2.6-1.1v0h-5.2l-5.8,27.4h-7.3l-3.7-17.4L42,40.2h-7.3l-3.7-17.4l-3.7,17.4h-7.3l-3.7-17.4
	L12.8,40.2z M82.2,43.9v-42H1.8v42H82.2z M84.1,0v45.7H0V0H84.1z"/>
</svg>
