<?xml version="1.0" encoding="utf-8"?>
<!-- Generator: Adobe Illustrator 22.1.0, SVG Export Plug-In . SVG Version: 6.00 Build 0)  -->
<svg version="1.1" id="Warstwa_1" xmlns="http://www.w3.org/2000/svg" xmlns:xlink="http://www.w3.org/1999/xlink" x="0px" y="0px"
	 viewBox="0 0 22.2 22.2" style="enable-background:new 0 0 22.2 22.2;" xml:space="preserve">
<path d="M5.7,11.1c0-3,2.4-5.4,5.4-5.4s5.4,2.4,5.4,5.4s-2.4,5.4-5.4,5.4S5.7,14.1,5.7,11.1L5.7,11.1z M16.7,0.5H5.5
	c-2.7,0-5,2.2-5,5v11.2c0,2.7,2.3,5,5,5h11.2c2.8,0,5-2.3,5-5V5.5C21.7,2.7,19.4,0.5,16.7,0.5L16.7,0.5z M5.5,1.8h11.2
	c2.1,0,3.8,1.7,3.8,3.8v11.2c0,2.1-1.7,3.8-3.8,3.8H5.5c-2.1,0-3.8-1.7-3.8-3.8V5.5C1.8,3.4,3.4,1.8,5.5,1.8L5.5,1.8z M17.8,3.3
	c-0.6,0-1.1,0.5-1.1,1.1s0.5,1.1,1.1,1.1s1.1-0.5,1.1-1.1S18.4,3.3,17.8,3.3L17.8,3.3z M17.9,11.1c0-3.8-3.1-6.8-6.8-6.8
	c-3.8,0-6.8,3.1-6.8,6.8c0,3.8,3.1,6.8,6.8,6.8C14.9,17.9,17.9,14.9,17.9,11.1L17.9,11.1z"/>
<path d="M16.7,22.2H5.5c-3,0-5.5-2.5-5.5-5.5V5.5C0,2.5,2.5,0,5.5,0h11.2c3,0,5.5,2.5,5.5,5.5v11.2C22.2,19.7,19.7,22.2,16.7,22.2z
	 M5.5,1C3,1,1,3,1,5.5v11.2c0,2.5,2,4.5,4.5,4.5h11.2c2.5,0,4.5-2,4.5-4.5V5.5c0-2.5-2-4.5-4.5-4.5H5.5z M16.7,20.9H5.5
	c-2.3,0-4.3-1.9-4.3-4.3V5.5c0-2.3,1.9-4.3,4.3-4.3h11.2C19,1.2,21,3.1,21,5.5v11.2C20.9,19,19,20.9,16.7,20.9z M5.5,2.3
	c-1.8,0-3.3,1.5-3.3,3.3v11.2c0,1.8,1.5,3.3,3.3,3.3h11.2c1.8,0,3.3-1.5,3.3-3.3V5.5c0-1.8-1.5-3.3-3.3-3.3L5.5,2.3L5.5,2.3z
	 M11.1,18.4c-4,0-7.3-3.3-7.3-7.3s3.3-7.3,7.3-7.3s7.3,3.3,7.3,7.3C18.4,15.1,15.1,18.4,11.1,18.4z M11.1,4.8
	c-3.5,0-6.3,2.8-6.3,6.3s2.8,6.3,6.3,6.3s6.3-2.8,6.3-6.3S14.6,4.8,11.1,4.8z M11.1,17c-3.3,0-5.9-2.7-5.9-5.9
	c0-3.3,2.6-5.9,5.9-5.9S17,7.9,17,11.1S14.3,17,11.1,17z M11.1,6.2c-2.7,0-4.9,2.2-4.9,4.9S8.4,16,11.1,16s4.9-2.2,4.9-4.9
	S13.8,6.2,11.1,6.2z M17.8,6c-0.9,0-1.6-0.7-1.6-1.6s0.7-1.6,1.6-1.6s1.6,0.7,1.6,1.6S18.7,6,17.8,6z M17.8,3.8
	c-0.3,0-0.6,0.3-0.6,0.6S17.5,5,17.8,5c0.3,0,0.6-0.3,0.6-0.6C18.4,4.1,18.1,3.8,17.8,3.8z"/>
</svg>
