<?xml version="1.0" encoding="utf-8"?>
<!-- Generator: Adobe Illustrator 22.1.0, SVG Export Plug-In . SVG Version: 6.00 Build 0)  -->
<svg version="1.1" id="Warstwa_1" xmlns="http://www.w3.org/2000/svg" xmlns:xlink="http://www.w3.org/1999/xlink" x="0px" y="0px"
	 viewBox="0 0 346.9 64.5" style="enable-background:new 0 0 346.9 64.5;" xml:space="preserve">
<style type="text/css">
	.st0{fill:#FFFFFF;}
	.st1{fill-rule:evenodd;clip-rule:evenodd;fill:#FFFFFF;}
	.st2{fill-rule:evenodd;clip-rule:evenodd;fill:#19274C;}
</style>
<g>
	<g>
		<path class="st0" d="M74.1,19h-2.5v-2.3c-0.8,1.6-2.3,2.4-4.2,2.4c-2.7,0-4.3-1.7-4.3-4.5V7.3h2.5v6.6c0,1.8,1,2.8,2.7,2.8
			c2,0,3.2-1.6,3.2-3.7V7.3h2.5V19z"/>
		<path class="st0" d="M77.9,19V2.7h2.5V19H77.9z"/>
		<path class="st0" d="M86.2,17.7c0,0.9-0.6,1.5-1.4,1.5s-1.4-0.6-1.4-1.5c0-0.8,0.6-1.4,1.4-1.4S86.2,16.9,86.2,17.7z"/>
		<path class="st0" d="M101.9,14.3c-0.2,0-0.5,0-0.7,0h-3.7V19h-2.6V3.6h6.2c3.9,0,6.2,1.9,6.2,5.3c0,2.5-1.1,4.2-3.2,5l3.5,5.1
			h-2.9L101.9,14.3z M101.2,12c2.4,0,3.7-1,3.7-3.1c0-2-1.4-3-3.7-3h-3.7V12H101.2z"/>
		<path class="st0" d="M121.8,13.2c0,3.5-2.5,5.9-6.1,5.9c-3.6,0-6.1-2.4-6.1-5.9c0-3.5,2.5-5.9,6.1-5.9
			C119.3,7.2,121.8,9.6,121.8,13.2z M112.1,13.2c0,2.3,1.5,3.8,3.6,3.8c2.1,0,3.6-1.5,3.6-3.8c0-2.2-1.5-3.8-3.6-3.8
			C113.6,9.4,112.1,10.9,112.1,13.2z"/>
		<path class="st0" d="M136.7,13.2c0,3.5-2.2,5.9-5.5,5.9c-1.9,0-3.3-0.7-4.1-2.1v2h-2.5V2.7h2.5v6.6c0.9-1.4,2.3-2.1,4.1-2.1
			C134.5,7.2,136.7,9.6,136.7,13.2z M134.2,13.1c0-2.2-1.5-3.8-3.6-3.8c-2.1,0-3.6,1.6-3.6,3.8c0,2.3,1.5,3.8,3.6,3.8
			C132.7,16.9,134.2,15.4,134.2,13.1z"/>
		<path class="st0" d="M150.5,13.2c0,3.5-2.5,5.9-6.1,5.9c-3.6,0-6.1-2.4-6.1-5.9c0-3.5,2.5-5.9,6.1-5.9
			C148,7.2,150.5,9.6,150.5,13.2z M140.8,13.2c0,2.3,1.5,3.8,3.6,3.8c2.1,0,3.6-1.5,3.6-3.8c0-2.2-1.5-3.8-3.6-3.8
			C142.3,9.4,140.8,10.9,140.8,13.2z"/>
		<path class="st0" d="M159.7,18.3c-0.9,0.5-1.9,0.9-2.9,0.9c-1.8,0-3.3-1-3.3-3.4V9.6h-1.7V7.7h1.7V4.5h2.5v3.2h3.5v1.9h-3.5v5.6
			c0,1.2,0.5,1.6,1.3,1.6c0.5,0,1.1-0.2,1.8-0.5L159.7,18.3z"/>
		<path class="st0" d="M173.3,11.7V19h-2.5v-6.6c0-1.8-1.1-2.8-2.8-2.8c-1.9,0-3.1,1.4-3.3,3.2V19h-2.5V7.3h2.5v2.2
			c0.8-1.6,2.3-2.3,4.3-2.3C171.6,7.2,173.3,8.9,173.3,11.7z"/>
		<path class="st0" d="M179.4,4c0,0.9-0.6,1.5-1.5,1.5c-0.8,0-1.5-0.6-1.5-1.5c0-0.9,0.6-1.5,1.5-1.5C178.7,2.4,179.4,3.1,179.4,4z
			 M176.7,19V7.3h2.5V19H176.7z"/>
		<path class="st0" d="M192.5,9.1l-1.4,1.6c-0.8-0.8-1.9-1.3-3.3-1.3c-2,0-3.5,1.5-3.5,3.7c0,2.2,1.5,3.7,3.5,3.7
			c1.5,0,2.7-0.5,3.5-1.4l1.4,1.4c-1.1,1.4-2.8,2.2-5,2.2c-3.5,0-5.9-2.4-5.9-5.9c0-3.5,2.4-6,5.9-6C189.8,7.2,191.5,7.9,192.5,9.1z
			"/>
		<path class="st0" d="M197.6,16.9l6.9,0V19l-10,0v-1.7l6.7-7.9h-6.5V7.3l9.6,0V9L197.6,16.9z"/>
		<path class="st0" d="M214.1,17.6c-0.8,1-2.2,1.5-3.9,1.5c-2.5,0-4.1-1.6-4.1-3.6c0-2.1,1.6-3.5,4.4-3.5h3.5v-0.4
			c0-1.5-0.9-2.4-2.8-2.4c-1.1,0-2.3,0.4-3.5,1.2l-1-1.8c1.6-1,2.8-1.5,5-1.5c3,0,4.7,1.5,4.7,4.1l0,7.7h-2.5V17.6z M214.1,14.9
			v-1.1H211c-1.7,0-2.4,0.4-2.4,1.6c0,1.1,0.9,1.7,2.3,1.7C212.6,17.1,214,16.2,214.1,14.9z"/>
		<path class="st0" d="M229.7,19h-2.8l6-13.1h-6l0,2.2h-2.3V3.6h11.2v2L229.7,19z"/>
		<path class="st0" d="M247.6,7.4c0,1.6-1.2,3.3-2.8,5.1l-4,4.2h7.5V19h-11v-1.9L243,11c1.1-1.1,1.9-2.4,1.9-3.3c0-1.2-1-2-2.6-2
			c-1.3,0-2.9,0.7-4.2,1.9l-1-2c1.7-1.4,3.6-2.2,5.6-2.2C245.6,3.5,247.6,5,247.6,7.4z"/>
		<path class="st0" d="M253,17.8c0,0.4-0.2,0.8-0.4,1.2l-1.3,1.9h-1.3l0.8-1.9c-0.4-0.3-0.6-0.7-0.6-1.1c0-0.8,0.6-1.4,1.4-1.4
			C252.4,16.4,253,16.9,253,17.8z"/>
		<path class="st0" d="M261.7,19V2.7h2.5V19H261.7z"/>
		<path class="st0" d="M279.2,13.2c0,3.5-2.5,5.9-6.1,5.9c-3.6,0-6.1-2.4-6.1-5.9c0-3.5,2.5-5.9,6.1-5.9
			C276.7,7.2,279.2,9.6,279.2,13.2z M269.5,13.2c0,2.3,1.5,3.8,3.6,3.8c2.1,0,3.6-1.5,3.6-3.8c0-2.2-1.5-3.8-3.6-3.8
			C270.9,9.4,269.5,10.9,269.5,13.2z"/>
		<path class="st0" d="M284.4,15.7V19h-2.5V2.7h2.5v9.9l5.2-5.2h2.9l-4.3,4.5l4.7,7.2h-3l-3.4-5.4L284.4,15.7z"/>
		<path class="st0" d="M296.8,17.7c0,0.9-0.6,1.5-1.4,1.5s-1.4-0.6-1.4-1.5c0-0.8,0.6-1.4,1.4-1.4S296.8,16.9,296.8,17.7z"/>
		<path class="st0" d="M314.7,7.4c0,1.6-1.2,3.3-2.8,5.1l-4,4.2h7.5V19h-11v-1.9l5.7-6.1c1.1-1.1,1.9-2.4,1.9-3.3c0-1.2-1-2-2.6-2
			c-1.3,0-2.9,0.7-4.2,1.9l-1-2c1.7-1.4,3.6-2.2,5.6-2.2C312.7,3.5,314.7,5,314.7,7.4z"/>
		<path class="st0" d="M327.7,7.4c0,1.6-1.2,3.3-2.8,5.1l-4,4.2h7.5V19h-11v-1.9l5.7-6.1c1.1-1.1,1.9-2.4,1.9-3.3c0-1.2-1-2-2.6-2
			c-1.3,0-2.9,0.7-4.2,1.9l-1-2c1.7-1.4,3.6-2.2,5.6-2.2C325.7,3.5,327.7,5,327.7,7.4z"/>
		<path class="st0" d="M341.4,7.5c0,1.5-0.9,2.7-2.3,3.3c1.9,0.6,3.1,2,3.1,3.9c0,2.8-2.3,4.4-5.9,4.4c-3.6,0-5.9-1.7-5.9-4.4
			c0-1.9,1.2-3.3,3.2-4c-1.5-0.7-2.4-1.9-2.4-3.4c0-2.4,2-3.9,5.1-3.9C339.4,3.5,341.4,5,341.4,7.5z M332.8,14.5
			c0,1.7,1.3,2.6,3.5,2.6s3.5-0.9,3.5-2.6c0-1.6-1.3-2.6-3.5-2.6C334.1,11.9,332.8,12.9,332.8,14.5z M333.3,7.6
			c0,1.4,1.1,2.2,2.9,2.2c1.9,0,2.9-0.8,2.9-2.2c0-1.4-1.1-2.3-2.9-2.3C334.4,5.4,333.3,6.2,333.3,7.6z"/>
		<path class="st0" d="M346.9,17.8c0,0.4-0.2,0.8-0.4,1.2l-1.3,1.9h-1.3l0.8-1.9c-0.4-0.3-0.6-0.7-0.6-1.1c0-0.8,0.6-1.4,1.4-1.4
			C346.2,16.4,346.9,16.9,346.9,17.8z"/>
		<path class="st0" d="M65.7,32.3v3.3l2.1,0c3.3,0,5.5,2,5.5,4.7c0,3.1-2.2,5.2-5.7,5.2c-1.8,0-4-0.7-5.5-1.8l1-2.1
			c1.2,1,2.8,1.6,4.2,1.6c2,0,3.2-1,3.2-2.8c0-1.6-1.2-2.5-3.2-2.5c-0.9,0-3,0.1-4,0.2V30h9.4l0,2.3H65.7z"/>
		<path class="st0" d="M80.8,36.5c2.6,0.2,4.3,1.7,4.3,4.1c0,2.9-2.2,4.9-5.6,4.9c-1.9,0-3.9-0.7-5.2-1.7l1.1-2.1
			c1.1,1,2.5,1.6,3.9,1.6c2,0,3.2-1.1,3.2-2.6c0-1.7-1.2-2.5-3.3-2.5h-2.1v-1.5l4-4.3H75V30h9.4v1.6L80,36.4L80.8,36.5z"/>
		<path class="st0" d="M87.4,39.6v-1.7h5.4v1.7H87.4z"/>
		<path class="st0" d="M106.5,31.1l-1,2c-0.9-0.6-2.2-1-3.4-1c-3,0-4.4,2.2-4.3,5.6c0.8-1.4,2.3-2.2,4.2-2.2c3.1,0,5,1.9,5,4.9
			c0,3.2-2.1,5.2-5.4,5.2c-3.9,0-6.3-2.8-6.3-7.5c0-4.9,2.6-8.1,6.6-8.1C103.4,29.9,105.2,30.4,106.5,31.1z M98.2,40.4
			c0,1.3,1,2.9,3.2,2.9c1.9,0,3.1-1.1,3.1-2.9c0-1.8-1.1-2.8-3-2.8C99.4,37.5,98.2,38.8,98.2,40.4z"/>
		<path class="st0" d="M121.9,37.7c0,5-2.3,7.8-6.5,7.8c-4.2,0-6.6-2.8-6.6-7.8c0-5,2.3-7.8,6.6-7.8
			C119.5,29.9,121.9,32.7,121.9,37.7z M111.4,37.7c0,3.9,1.3,5.7,3.9,5.7c2.6,0,3.9-1.8,3.9-5.7c0-3.9-1.3-5.7-3.9-5.7
			C112.7,32,111.4,33.8,111.4,37.7z"/>
		<path class="st0" d="M135,33.9c0,1.5-0.9,2.7-2.3,3.3c1.9,0.6,3.1,2,3.1,3.9c0,2.8-2.3,4.4-5.9,4.4c-3.6,0-5.9-1.7-5.9-4.4
			c0-1.9,1.2-3.3,3.2-4c-1.5-0.7-2.4-1.9-2.4-3.4c0-2.4,2-3.9,5.1-3.9C133,29.9,135,31.4,135,33.9z M126.4,40.9
			c0,1.7,1.3,2.6,3.5,2.6c2.2,0,3.5-0.9,3.5-2.6c0-1.6-1.3-2.6-3.5-2.6C127.6,38.3,126.4,39.3,126.4,40.9z M126.9,34
			c0,1.4,1.1,2.2,2.9,2.2c1.9,0,2.9-0.8,2.9-2.2c0-1.4-1.1-2.3-2.9-2.3C128,31.8,126.9,32.6,126.9,34z"/>
		<path class="st0" d="M157.6,45.4l-3.7-12l-3.7,12h-2.7L142.4,30h2.8l3.7,12.5l3.7-12.5l2.6,0l3.7,12.5l3.7-12.5h2.7l-5.1,15.4
			H157.6z"/>
		<path class="st0" d="M169.6,36c0.8-1.6,2.2-2.4,4-2.4V36c-2.4-0.1-3.9,1.3-4,3.3v6.1H167V33.7h2.5V36z"/>
		<path class="st0" d="M186.8,39.6c0,3.5-2.5,5.9-6.1,5.9c-3.6,0-6.1-2.4-6.1-5.9c0-3.5,2.5-5.9,6.1-5.9
			C184.3,33.6,186.8,36,186.8,39.6z M177.1,39.6c0,2.3,1.5,3.8,3.6,3.8c2.1,0,3.6-1.5,3.6-3.8c0-2.2-1.5-3.8-3.6-3.8
			C178.6,35.8,177.1,37.3,177.1,39.6z"/>
		<path class="st0" d="M199.1,35.5l-1.4,1.6c-0.8-0.8-1.9-1.3-3.3-1.3c-2,0-3.5,1.5-3.5,3.7c0,2.2,1.5,3.7,3.5,3.7
			c1.5,0,2.7-0.5,3.5-1.4l1.4,1.4c-1.1,1.4-2.8,2.2-5,2.2c-3.5,0-5.9-2.4-5.9-5.9c0-3.5,2.4-6,5.9-6C196.4,33.6,198,34.3,199.1,35.5
			z"/>
		<path class="st0" d="M204.9,45.4h-2.5v-8.5l-2.4,0.7l-0.4-1.7l2.8-0.8v-6h2.5v5.2l2.1-0.6l0.4,1.7l-2.5,0.7V45.4z"/>
		<path class="st0" d="M215.7,44c-0.8,1-2.2,1.5-3.9,1.5c-2.5,0-4.1-1.6-4.1-3.6c0-2.1,1.6-3.5,4.4-3.5h3.5V38
			c0-1.5-0.9-2.4-2.8-2.4c-1.1,0-2.3,0.4-3.5,1.2l-1-1.8c1.6-1,2.8-1.5,5-1.5c3,0,4.7,1.5,4.7,4.1l0,7.7h-2.5V44z M215.7,41.3v-1.1
			h-3.2c-1.7,0-2.4,0.4-2.4,1.6c0,1.1,0.9,1.7,2.3,1.7C214.2,43.5,215.6,42.6,215.7,41.3z"/>
		<path class="st0" d="M232.6,45.4l-3-8.7l-3,8.7H224l-4.3-11.7h2.6l3,9.2l2.9-9.2h2.6l3,9.2l3-9.2h2.6l-4.3,11.7H232.6z"/>
	</g>
	<g>
		<g>
			<polygon class="st1" points="0,0 0,43 21.5,43 21.5,64.5 43,43 43,0 			"/>
		</g>
		<path class="st2" d="M9,28.5H5.9L9,13.7h3.1l1.6,7.4l1.6-7.4h3.1l1.6,7.4l1.6-7.4h3.1l1.6,7.4l1.6-7.4h3.1h1.6
			c2.6,0,4.7,2.1,4.7,4.7c0,2.6-2.1,4.7-4.7,4.7h-2l0.7-3.1h1.3l0,0c0.4,0,0.8-0.2,1.1-0.5c0.3-0.3,0.5-0.7,0.5-1.1
			c0-0.4-0.2-0.8-0.5-1.1c-0.3-0.3-0.7-0.5-1.1-0.5l0,0h-2.2l-2.5,11.7h-3.1l-1.6-7.4l-1.6,7.4h-3.1l-1.6-7.4l-1.6,7.4h-3.1
			l-1.6-7.4L9,28.5z"/>
	</g>
</g>
</svg>
