<?xml version="1.0" encoding="utf-8"?>
<!-- Generator: Adobe Illustrator 16.0.0, SVG Export Plug-In . SVG Version: 6.00 Build 0)  -->
<!DOCTYPE svg PUBLIC "-//W3C//DTD SVG 1.1//EN" "http://www.w3.org/Graphics/SVG/1.1/DTD/svg11.dtd">
<svg version="1.1" id="Layer_1" xmlns="http://www.w3.org/2000/svg" xmlns:xlink="http://www.w3.org/1999/xlink" x="0px" y="0px"
	 width="42.992px" height="64.486px" viewBox="0 0 42.992 64.486" enable-background="new 0 0 42.992 64.486" xml:space="preserve">
<g>
	<g>
		<polygon fill-rule="evenodd" clip-rule="evenodd" fill="#FFFFFF" points="0,0 0,42.991 21.495,42.991 21.495,64.486 
			42.992,42.991 42.992,0 		"/>
	</g>
	<path fill-rule="evenodd" clip-rule="evenodd" fill="#19284C" d="M9.01,28.485H5.889L9.01,13.659h3.122l1.561,7.414l1.561-7.414
		h3.121l1.562,7.414l1.561-7.414h3.122l1.56,7.414l1.561-7.414h3.123h1.56c2.586,0,4.683,2.096,4.683,4.683
		c0,2.585-2.097,4.682-4.683,4.682H30.47l0.657-3.122h1.294l0,0c0.431,0,0.821-0.174,1.104-0.457
		c0.282-0.281,0.457-0.672,0.457-1.103c0-0.432-0.175-0.821-0.457-1.104c-0.282-0.281-0.673-0.457-1.104-0.457l0,0h-2.217
		l-2.466,11.705h-3.12l-1.562-7.412l-1.561,7.412h-3.122l-1.56-7.412l-1.562,7.412h-3.121l-1.561-7.412L9.01,28.485z"/>
</g>
</svg>
