<?xml version="1.0" encoding="utf-8"?>
<!-- Generator: Adobe Illustrator 22.1.0, SVG Export Plug-In . SVG Version: 6.00 Build 0)  -->
<svg version="1.1" id="Warstwa_1" xmlns="http://www.w3.org/2000/svg" xmlns:xlink="http://www.w3.org/1999/xlink" x="0px" y="0px"
	 viewBox="0 0 22.7 16.6" style="enable-background:new 0 0 22.7 16.6;" xml:space="preserve">
<style type="text/css">
	.st0{fill-rule:evenodd;clip-rule:evenodd;}
</style>
<path class="st0" d="M22.4,3.6c0,0-0.2-1.6-0.9-2.3c-0.9-0.9-1.8-0.9-2.3-1C16.1,0,11.3,0,11.3,0h0c0,0-4.7,0-7.9,0.2
	C3,0.3,2,0.3,1.1,1.2C0.5,2,0.2,3.6,0.2,3.6S0,5.5,0,7.4v0.2v1.6C0,11.1,0.2,13,0.2,13s0.2,1.6,0.9,2.4c0.9,0.9,2,0.9,2.5,1
	c1.8,0.2,7.7,0.2,7.7,0.2s4.8,0,7.9-0.2c0.4-0.1,1.4-0.1,2.3-1c0.7-0.7,0.9-2.4,0.9-2.4s0.2-1.9,0.2-3.8V7.7V7.4
	C22.7,5.5,22.4,3.6,22.4,3.6L22.4,3.6z M15.1,8.1L9,11.4V6.3V4.7l2.8,1.5L15.1,8.1z"/>
</svg>
