<?xml version="1.0" encoding="utf-8"?>
<!-- Generator: Adobe Illustrator 22.1.0, SVG Export Plug-In . SVG Version: 6.00 Build 0)  -->
<svg version="1.1" id="Warstwa_1" xmlns="http://www.w3.org/2000/svg" xmlns:xlink="http://www.w3.org/1999/xlink" x="0px" y="0px"
	 viewBox="0 0 1600 959.8" style="enable-background:new 0 0 1600 959.8;" xml:space="preserve">
<style type="text/css">
	.st0{clip-path:url(#SVGID_2_);fill-rule:evenodd;clip-rule:evenodd;fill:#19274C;}
	.st1{opacity:3.000000e-02;clip-path:url(#SVGID_2_);fill-rule:evenodd;clip-rule:evenodd;fill:#FFFFFF;}
</style>
<g>
	<defs>
		<rect id="SVGID_1_" width="1600" height="959.8"/>
	</defs>
	<clipPath id="SVGID_2_">
		<use xlink:href="#SVGID_1_"  style="overflow:visible;"/>
	</clipPath>
	<rect x="-189.7" y="-236.5" class="st0" width="2000.6" height="1343.6"/>
	<path class="st1" d="M107.9,702.3l-155-52.2l352.3-872.6l155,52.2l-21.1,488.5l176.2-436.3l155,52.2l-21.1,488.5L925.3-13.8
		l155,52.2l-21.2,488.5l176.2-436.3l155,52.2l77.5,26.1c128.4,43.2,204.6,209,170.2,370.3c-34.4,161.3-166.4,257-294.8,213.8
		l-96.9-32.6l74.2-183.7l64.3,21.6v0c21.4,7.2,43.1,2.8,60.9-10c17.8-12.9,31.6-34.3,37.4-61.2c5.8-26.9,2.3-54.2-8-76.5
		c-10.3-22.3-27.3-39.7-48.7-46.9v0l-110.1-37.1L1038,1015.3l-155-52.2l21.1-488.5L728,911l-155-52.2l21.1-488.5L418,806.6
		l-155-52.2L284.1,266L107.9,702.3z"/>
</g>
</svg>
