<svg xmlns="http://www.w3.org/2000/svg" viewBox="0 0 346.9 64.5"><path d="M74.1 19h-2.5v-2.3c-.8 1.6-2.3 2.4-4.2 2.4-2.7 0-4.3-1.7-4.3-4.5V7.3h2.5v6.6c0 1.8 1 2.8 2.7 2.8 2 0 3.2-1.6 3.2-3.7V7.3H74V19zm3.8 0V2.7h2.5V19h-2.5zm8.3-1.3c0 .9-.6 1.5-1.4 1.5s-1.4-.6-1.4-1.5c0-.8.6-1.4 1.4-1.4s1.4.6 1.4 1.4zm15.7-3.4h-4.4V19h-2.6V3.6h6.2c3.9 0 6.2 1.9 6.2 5.3 0 2.5-1.1 4.2-3.2 5l3.5 5.1h-2.9l-2.8-4.7zm-.7-2.3c2.4 0 3.7-1 3.7-3.1 0-2-1.4-3-3.7-3h-3.7V12h3.7zm20.6 1.2c0 3.5-2.5 5.9-6.1 5.9-3.6 0-6.1-2.4-6.1-5.9 0-3.5 2.5-5.9 6.1-5.9 3.6-.1 6.1 2.3 6.1 5.9zm-9.7 0c0 2.3 1.5 3.8 3.6 3.8s3.6-1.5 3.6-3.8c0-2.2-1.5-3.8-3.6-3.8s-3.6 1.5-3.6 3.8zm24.6 0c0 3.5-2.2 5.9-5.5 5.9-1.9 0-3.3-.7-4.1-2.1v2h-2.5V2.7h2.5v6.6c.9-1.4 2.3-2.1 4.1-2.1 3.3 0 5.5 2.4 5.5 6zm-2.5-.1c0-2.2-1.5-3.8-3.6-3.8s-3.6 1.6-3.6 3.8c0 2.3 1.5 3.8 3.6 3.8s3.6-1.5 3.6-3.8zm16.3.1c0 3.5-2.5 5.9-6.1 5.9-3.6 0-6.1-2.4-6.1-5.9 0-3.5 2.5-5.9 6.1-5.9 3.6-.1 6.1 2.3 6.1 5.9zm-9.7 0c0 2.3 1.5 3.8 3.6 3.8s3.6-1.5 3.6-3.8c0-2.2-1.5-3.8-3.6-3.8s-3.6 1.5-3.6 3.8zm18.9 5.1c-.9.5-1.9.9-2.9.9-1.8 0-3.3-1-3.3-3.4V9.6h-1.7V7.7h1.7V4.5h2.5v3.2h3.5v1.9H156v5.6c0 1.2.5 1.6 1.3 1.6.5 0 1.1-.2 1.8-.5l.6 2zm13.6-6.6V19h-2.5v-6.6c0-1.8-1.1-2.8-2.8-2.8-1.9 0-3.1 1.4-3.3 3.2V19h-2.5V7.3h2.5v2.2c.8-1.6 2.3-2.3 4.3-2.3 2.6 0 4.3 1.7 4.3 4.5zm6.1-7.7c0 .9-.6 1.5-1.5 1.5-.8 0-1.5-.6-1.5-1.5s.6-1.5 1.5-1.5c.8-.1 1.5.6 1.5 1.5zm-2.7 15V7.3h2.5V19h-2.5zm15.8-9.9l-1.4 1.6c-.8-.8-1.9-1.3-3.3-1.3-2 0-3.5 1.5-3.5 3.7s1.5 3.7 3.5 3.7c1.5 0 2.7-.5 3.5-1.4l1.4 1.4c-1.1 1.4-2.8 2.2-5 2.2-3.5 0-5.9-2.4-5.9-5.9 0-3.5 2.4-6 5.9-6 2.1.1 3.8.8 4.8 2zm5.1 7.8h6.9V19h-10v-1.7l6.7-7.9h-6.5V7.3h9.6V9l-6.7 7.9zm16.5.7c-.8 1-2.2 1.5-3.9 1.5-2.5 0-4.1-1.6-4.1-3.6 0-2.1 1.6-3.5 4.4-3.5h3.5v-.4c0-1.5-.9-2.4-2.8-2.4-1.1 0-2.3.4-3.5 1.2l-1-1.8c1.6-1 2.8-1.5 5-1.5 3 0 4.7 1.5 4.7 4.1v7.7h-2.5v-1.3zm0-2.7v-1.1H211c-1.7 0-2.4.4-2.4 1.6 0 1.1.9 1.7 2.3 1.7 1.7 0 3.1-.9 3.2-2.2zm15.6 4.1h-2.8l6-13.1h-6v2.2h-2.3V3.6h11.2v2L229.7 19zm17.9-11.6c0 1.6-1.2 3.3-2.8 5.1l-4 4.2h7.5V19h-11v-1.9L243 11c1.1-1.1 1.9-2.4 1.9-3.3 0-1.2-1-2-2.6-2-1.3 0-2.9.7-4.2 1.9l-1-2c1.7-1.4 3.6-2.2 5.6-2.2 2.9.1 4.9 1.6 4.9 4zm5.4 10.4c0 .4-.2.8-.4 1.2l-1.3 1.9H250l.8-1.9c-.4-.3-.6-.7-.6-1.1 0-.8.6-1.4 1.4-1.4.8-.1 1.4.4 1.4 1.3zm8.7 1.2V2.7h2.5V19h-2.5zm17.5-5.8c0 3.5-2.5 5.9-6.1 5.9-3.6 0-6.1-2.4-6.1-5.9 0-3.5 2.5-5.9 6.1-5.9 3.6-.1 6.1 2.3 6.1 5.9zm-9.7 0c0 2.3 1.5 3.8 3.6 3.8s3.6-1.5 3.6-3.8c0-2.2-1.5-3.8-3.6-3.8-2.2 0-3.6 1.5-3.6 3.8zm14.9 2.5V19h-2.5V2.7h2.5v9.9l5.2-5.2h2.9l-4.3 4.5 4.7 7.2h-3l-3.4-5.4-2.1 2zm12.4 2c0 .9-.6 1.5-1.4 1.5s-1.4-.6-1.4-1.5c0-.8.6-1.4 1.4-1.4s1.4.6 1.4 1.4zm17.9-10.3c0 1.6-1.2 3.3-2.8 5.1l-4 4.2h7.5V19h-11v-1.9l5.7-6.1c1.1-1.1 1.9-2.4 1.9-3.3 0-1.2-1-2-2.6-2-1.3 0-2.9.7-4.2 1.9l-1-2c1.7-1.4 3.6-2.2 5.6-2.2 2.9.1 4.9 1.6 4.9 4zm13 0c0 1.6-1.2 3.3-2.8 5.1l-4 4.2h7.5V19h-11v-1.9l5.7-6.1c1.1-1.1 1.9-2.4 1.9-3.3 0-1.2-1-2-2.6-2-1.3 0-2.9.7-4.2 1.9l-1-2c1.7-1.4 3.6-2.2 5.6-2.2 2.9.1 4.9 1.6 4.9 4zm13.7.1c0 1.5-.9 2.7-2.3 3.3 1.9.6 3.1 2 3.1 3.9 0 2.8-2.3 4.4-5.9 4.4-3.6 0-5.9-1.7-5.9-4.4 0-1.9 1.2-3.3 3.2-4-1.5-.7-2.4-1.9-2.4-3.4 0-2.4 2-3.9 5.1-3.9 3.1.1 5.1 1.6 5.1 4.1zm-8.6 7c0 1.7 1.3 2.6 3.5 2.6s3.5-.9 3.5-2.6c0-1.6-1.3-2.6-3.5-2.6s-3.5 1-3.5 2.6zm.5-6.9c0 1.4 1.1 2.2 2.9 2.2 1.9 0 2.9-.8 2.9-2.2 0-1.4-1.1-2.3-2.9-2.3-1.8.1-2.9.9-2.9 2.3zm13.6 10.2c0 .4-.2.8-.4 1.2l-1.3 1.9h-1.3l.8-1.9c-.4-.3-.6-.7-.6-1.1 0-.8.6-1.4 1.4-1.4.7-.1 1.4.4 1.4 1.3zM65.7 32.3v3.3h2.1c3.3 0 5.5 2 5.5 4.7 0 3.1-2.2 5.2-5.7 5.2-1.8 0-4-.7-5.5-1.8l1-2.1c1.2 1 2.8 1.6 4.2 1.6 2 0 3.2-1 3.2-2.8 0-1.6-1.2-2.5-3.2-2.5-.9 0-3 .1-4 .2V30h9.4v2.3h-7zm15.1 4.2c2.6.2 4.3 1.7 4.3 4.1 0 2.9-2.2 4.9-5.6 4.9-1.9 0-3.9-.7-5.2-1.7l1.1-2.1c1.1 1 2.5 1.6 3.9 1.6 2 0 3.2-1.1 3.2-2.6 0-1.7-1.2-2.5-3.3-2.5h-2.1v-1.5l4-4.3H75V30h9.4v1.6L80 36.4l.8.1zm6.6 3.1v-1.7h5.4v1.7h-5.4zm19.1-8.5l-1 2c-.9-.6-2.2-1-3.4-1-3 0-4.4 2.2-4.3 5.6.8-1.4 2.3-2.2 4.2-2.2 3.1 0 5 1.9 5 4.9 0 3.2-2.1 5.2-5.4 5.2-3.9 0-6.3-2.8-6.3-7.5 0-4.9 2.6-8.1 6.6-8.1 1.5-.1 3.3.4 4.6 1.1zm-8.3 9.3c0 1.3 1 2.9 3.2 2.9 1.9 0 3.1-1.1 3.1-2.9 0-1.8-1.1-2.8-3-2.8-2.1-.1-3.3 1.2-3.3 2.8zm23.7-2.7c0 5-2.3 7.8-6.5 7.8s-6.6-2.8-6.6-7.8 2.3-7.8 6.6-7.8c4.1 0 6.5 2.8 6.5 7.8zm-10.5 0c0 3.9 1.3 5.7 3.9 5.7 2.6 0 3.9-1.8 3.9-5.7 0-3.9-1.3-5.7-3.9-5.7-2.6 0-3.9 1.8-3.9 5.7zm23.6-3.8c0 1.5-.9 2.7-2.3 3.3 1.9.6 3.1 2 3.1 3.9 0 2.8-2.3 4.4-5.9 4.4-3.6 0-5.9-1.7-5.9-4.4 0-1.9 1.2-3.3 3.2-4-1.5-.7-2.4-1.9-2.4-3.4 0-2.4 2-3.9 5.1-3.9 3.1.1 5.1 1.6 5.1 4.1zm-8.6 7c0 1.7 1.3 2.6 3.5 2.6s3.5-.9 3.5-2.6c0-1.6-1.3-2.6-3.5-2.6-2.3 0-3.5 1-3.5 2.6zm.5-6.9c0 1.4 1.1 2.2 2.9 2.2 1.9 0 2.9-.8 2.9-2.2 0-1.4-1.1-2.3-2.9-2.3-1.8.1-2.9.9-2.9 2.3zm30.7 11.4l-3.7-12-3.7 12h-2.7L142.4 30h2.8l3.7 12.5 3.7-12.5h2.6l3.7 12.5 3.7-12.5h2.7l-5.1 15.4h-2.6zm12-9.4c.8-1.6 2.2-2.4 4-2.4V36c-2.4-.1-3.9 1.3-4 3.3v6.1H167V33.7h2.5V36zm17.2 3.6c0 3.5-2.5 5.9-6.1 5.9-3.6 0-6.1-2.4-6.1-5.9 0-3.5 2.5-5.9 6.1-5.9 3.6-.1 6.1 2.3 6.1 5.9zm-9.7 0c0 2.3 1.5 3.8 3.6 3.8s3.6-1.5 3.6-3.8c0-2.2-1.5-3.8-3.6-3.8s-3.6 1.5-3.6 3.8zm22-4.1l-1.4 1.6c-.8-.8-1.9-1.3-3.3-1.3-2 0-3.5 1.5-3.5 3.7s1.5 3.7 3.5 3.7c1.5 0 2.7-.5 3.5-1.4l1.4 1.4c-1.1 1.4-2.8 2.2-5 2.2-3.5 0-5.9-2.4-5.9-5.9 0-3.5 2.4-6 5.9-6 2.1.1 3.7.8 4.8 2zm5.8 9.9h-2.5v-8.5l-2.4.7-.4-1.7 2.8-.8v-6h2.5v5.2l2.1-.6.4 1.7-2.5.7v9.3zm10.8-1.4c-.8 1-2.2 1.5-3.9 1.5-2.5 0-4.1-1.6-4.1-3.6 0-2.1 1.6-3.5 4.4-3.5h3.5V38c0-1.5-.9-2.4-2.8-2.4-1.1 0-2.3.4-3.5 1.2l-1-1.8c1.6-1 2.8-1.5 5-1.5 3 0 4.7 1.5 4.7 4.1v7.7h-2.5V44zm0-2.7v-1.1h-3.2c-1.7 0-2.4.4-2.4 1.6 0 1.1.9 1.7 2.3 1.7 1.8 0 3.2-.9 3.3-2.2zm16.9 4.1l-3-8.7-3 8.7H224l-4.3-11.7h2.6l3 9.2 2.9-9.2h2.6l3 9.2 3-9.2h2.6l-4.3 11.7h-2.5z" fill="#fff"/><g fill-rule="evenodd" clip-rule="evenodd"><path fill="#fff" d="M0 0v43h21.5v21.5L43 43V0z"/><path d="M9 28.5H5.9L9 13.7h3.1l1.6 7.4 1.6-7.4h3.1l1.6 7.4 1.6-7.4h3.1l1.6 7.4 1.6-7.4h4.7c2.6 0 4.7 2.1 4.7 4.7s-2.1 4.7-4.7 4.7h-2l.7-3.1h1.3c.4 0 .8-.2 1.1-.5.3-.3.5-.7.5-1.1 0-.4-.2-.8-.5-1.1-.3-.3-.7-.5-1.1-.5h-2.2l-2.5 11.7h-3.1l-1.6-7.4-1.6 7.4h-3.1l-1.6-7.4-1.6 7.4h-3.1l-1.6-7.4L9 28.5z" fill="#19274c"/></g></svg>